<svg width="24" height="24" viewBox="0 0 24 24" fill="none" xmlns="http://www.w3.org/2000/svg">
<path d="M12 2C17.5228 2 22 6.47715 22 12C22 17.5228 17.5228 22 12 22C6.47715 22 2 17.5228 2 12C2 6.47715 6.47715 2 12 2ZM7.3877 12.9521C7.25194 12.953 7.11756 12.9808 6.99316 13.0352C6.86888 13.0895 6.75683 13.1686 6.66406 13.2676C6.57131 13.3666 6.49929 13.4838 6.45312 13.6113C6.40697 13.739 6.38751 13.8752 6.39551 14.0107C6.40352 14.1462 6.43916 14.2791 6.5 14.4004C6.85391 15.2213 7.38777 15.9525 8.06152 16.54C8.73532 17.1276 9.53209 17.557 10.3936 17.7959C11.2551 18.0348 12.1598 18.0766 13.04 17.9199C13.9201 17.7632 14.7544 17.4111 15.4805 16.8896L16.2998 17.7002C16.4395 17.8372 16.6165 17.9303 16.8086 17.9678C17.0007 18.0052 17.1999 17.9847 17.3809 17.9102C17.5618 17.8356 17.7171 17.7097 17.8271 17.5479C17.9371 17.386 17.9973 17.1956 18 17V14C18 13.7348 17.8946 13.4805 17.707 13.293C17.5195 13.1054 17.2652 13 17 13H14C13.8014 12.9988 13.6069 13.0572 13.4414 13.167C13.276 13.2768 13.1465 13.4329 13.0703 13.6162C12.9942 13.7995 12.9747 14.0017 13.0137 14.1963C13.0527 14.391 13.149 14.5701 13.29 14.71L14.0303 15.4502C13.5424 15.7379 12.9986 15.9185 12.4355 15.9805C11.8726 16.0424 11.3024 15.9843 10.7637 15.8096C10.2248 15.6347 9.72903 15.3466 9.30957 14.9658C8.8901 14.585 8.55606 14.1192 8.33008 13.5996C8.28233 13.4727 8.2092 13.3566 8.11523 13.2588C8.02122 13.1609 7.90821 13.0831 7.7832 13.0303C7.65815 12.9775 7.52344 12.9513 7.3877 12.9521ZM13.6094 6.20898C12.7477 5.9691 11.8426 5.92504 10.9619 6.08105C10.0812 6.23708 9.24633 6.5891 8.51953 7.11035L7.7002 6.2998C7.56046 6.1628 7.38347 6.06969 7.19141 6.03223C6.99928 5.99478 6.80014 6.01531 6.61914 6.08984C6.43821 6.16438 6.28288 6.29033 6.17285 6.45215C6.06292 6.61396 6.00275 6.80439 6 7V10C6 10.2652 6.10543 10.5195 6.29297 10.707C6.4805 10.8946 6.73478 11 7 11H10C10.1986 11.0012 10.3931 10.9428 10.5586 10.833C10.724 10.7232 10.8535 10.5671 10.9297 10.3838C11.0058 10.2005 11.0253 9.99834 10.9863 9.80371C10.9473 9.60896 10.851 9.42991 10.71 9.29004L9.96973 8.5498C10.4584 8.26229 11.0028 8.08175 11.5664 8.02051C12.1301 7.95927 12.7003 8.01943 13.2393 8.19531C13.7781 8.37116 14.2734 8.65925 14.6924 9.04102C15.1114 9.42292 15.4449 9.88975 15.6699 10.4102C15.7177 10.5372 15.7908 10.6531 15.8848 10.751C15.9788 10.8488 16.0918 10.9267 16.2168 10.9795C16.3418 11.0323 16.4766 11.0594 16.6123 11.0586C16.7481 11.0577 16.8824 11.029 17.0068 10.9746C17.1311 10.9202 17.2432 10.8412 17.3359 10.7422C17.4287 10.6431 17.5007 10.5261 17.5469 10.3984C17.593 10.2708 17.6125 10.1345 17.6045 9.99902C17.5965 9.86372 17.5607 9.73153 17.5 9.61035C17.1471 8.78848 16.6138 8.05548 15.9404 7.4668C15.2673 6.87845 14.4706 6.44884 13.6094 6.20898Z" fill="#F9983E"/>
</svg>
