<svg width="160" height="27" viewBox="0 0 160 27" fill="none" xmlns="http://www.w3.org/2000/svg">
<path d="M42.1677 19.1666V21.6H33.2864V19.1666H42.1677ZM34.2503 5.19671V21.6H31.0947V5.19671H34.2503ZM41.0088 11.9676V14.3447H33.2864V11.9676H41.0088ZM42.1333 5.19671V7.64144H33.2864V5.19671H42.1333ZM50.9573 18.2653C50.9573 18.0099 50.8883 17.7808 50.7508 17.578C50.6133 17.3752 50.3528 17.1912 49.9705 17.026C49.5956 16.8533 49.0449 16.6918 48.3181 16.5416C47.6756 16.4064 47.0827 16.2374 46.5396 16.0346C45.9964 15.8318 45.5298 15.5877 45.1397 15.3023C44.7495 15.0094 44.4435 14.6677 44.2217 14.2771C44.0075 13.879 43.9004 13.4209 43.9004 12.9027C43.9004 12.3994 44.0113 11.9263 44.2332 11.4831C44.455 11.0325 44.7763 10.6382 45.197 10.3002C45.6178 9.95475 46.1303 9.68436 46.7346 9.48907C47.339 9.28628 48.0198 9.18491 48.7771 9.18491C49.8328 9.18491 50.7393 9.35388 51.4968 9.69187C52.2618 10.0299 52.8468 10.4955 53.2523 11.0888C53.6578 11.6747 53.8603 12.3356 53.8603 13.0716H50.8313C50.8313 12.7487 50.7548 12.4558 50.6018 12.1929C50.4563 11.93 50.2308 11.7197 49.9246 11.562C49.6186 11.3968 49.2323 11.3142 48.7656 11.3142C48.3449 11.3142 47.9892 11.3818 47.6985 11.5169C47.4155 11.6521 47.2013 11.8286 47.0559 12.0465C46.9106 12.2642 46.8379 12.5046 46.8379 12.7675C46.8379 12.9627 46.8762 13.1392 46.9527 13.297C47.0368 13.4472 47.1707 13.5862 47.3543 13.7138C47.5379 13.8415 47.7865 13.9579 48.1001 14.0631C48.4214 14.1682 48.8154 14.2696 49.282 14.3672C50.2078 14.5475 51.0148 14.7878 51.7033 15.0883C52.3993 15.3812 52.9423 15.7717 53.3328 16.2599C53.7228 16.7481 53.9178 17.3715 53.9178 18.1301C53.9178 18.6708 53.7993 19.1666 53.5623 19.6172C53.3248 20.0603 52.9808 20.4471 52.5293 20.7776C52.0778 21.1081 51.5388 21.3672 50.9113 21.5549C50.2843 21.7352 49.5765 21.8253 48.7886 21.8253C47.6488 21.8253 46.6849 21.6263 45.897 21.2282C45.1091 20.8226 44.5124 20.3119 44.107 19.6961C43.7015 19.0727 43.4988 18.4268 43.4988 17.7583H46.4019C46.4248 18.2315 46.5549 18.6108 46.792 18.8962C47.0292 19.1816 47.3275 19.3881 47.687 19.5158C48.0542 19.636 48.4405 19.6961 48.846 19.6961C49.305 19.6961 49.6913 19.636 50.0048 19.5158C50.3188 19.3881 50.5558 19.2191 50.7163 19.0088C50.8768 18.791 50.9573 18.5432 50.9573 18.2653ZM62.0993 9.41019V11.5507H54.9848V9.41019H62.0993ZM56.8898 6.41348H59.9303V18.085C59.9303 18.4455 59.9803 18.7234 60.0798 18.9187C60.1793 19.114 60.3283 19.2454 60.5273 19.313C60.7258 19.3806 60.9633 19.4144 61.2388 19.4144C61.4373 19.4144 61.6213 19.4031 61.7893 19.3806C61.9578 19.3581 62.0993 19.3355 62.2138 19.313L62.2253 21.5437C61.9728 21.6263 61.6863 21.6939 61.3648 21.7464C61.0513 21.799 60.6953 21.8253 60.2978 21.8253C59.6168 21.8253 59.0203 21.7127 58.5078 21.4873C57.9953 21.2545 57.5973 20.8827 57.3143 20.372C57.0313 19.8538 56.8898 19.1703 56.8898 18.3216V6.41348ZM70.9578 19.0088V13.3871C70.9578 12.974 70.8848 12.6172 70.7393 12.3168C70.5943 12.0164 70.3723 11.7836 70.0738 11.6183C69.7758 11.4531 69.3968 11.3705 68.9378 11.3705C68.5328 11.3705 68.1768 11.4381 67.8708 11.5733C67.5728 11.7085 67.3433 11.9 67.1823 12.1478C67.0218 12.3882 66.9413 12.6661 66.9413 12.9815H63.9008C63.9008 12.4783 64.0233 12.0014 64.2678 11.5507C64.5128 11.0926 64.8608 10.687 65.3123 10.334C65.7708 9.9735 66.3178 9.69187 66.9528 9.48907C67.5953 9.28628 68.3148 9.18491 69.1103 9.18491C70.0513 9.18491 70.8888 9.34259 71.6233 9.65805C72.3653 9.96599 72.9463 10.4317 73.3673 11.055C73.7958 11.6784 74.0098 12.4633 74.0098 13.4096V18.7271C74.0098 19.3355 74.0483 19.8575 74.1248 20.2931C74.2088 20.7213 74.3313 21.093 74.4918 21.4085V21.6H71.4053C71.2598 21.2921 71.1488 20.9015 71.0723 20.4283C70.9958 19.9476 70.9578 19.4745 70.9578 19.0088ZM71.3823 14.1757L71.4053 15.9445H69.4888C69.0143 15.9445 68.5978 15.9933 68.2383 16.0909C67.8783 16.1811 67.5838 16.3162 67.3543 16.4965C67.1248 16.6693 66.9528 16.8796 66.8383 17.1274C66.7233 17.3677 66.6663 17.6419 66.6663 17.9498C66.6663 18.2502 66.7348 18.5206 66.8728 18.761C67.0178 19.0013 67.2243 19.1928 67.4923 19.3355C67.7678 19.4707 68.0888 19.5383 68.4563 19.5383C68.9918 19.5383 69.4583 19.4332 69.8558 19.2229C70.2538 19.0051 70.5638 18.7422 70.7853 18.4343C71.0073 18.1263 71.1258 17.8334 71.1413 17.5555L72.0133 18.8398C71.9063 19.1478 71.7453 19.4745 71.5313 19.82C71.3173 20.1655 71.0418 20.4884 70.7053 20.7889C70.3683 21.0893 69.9633 21.3371 69.4888 21.5324C69.0143 21.7277 68.4638 21.8253 67.8363 21.8253C67.0333 21.8253 66.3143 21.6676 65.6793 21.3521C65.0443 21.0367 64.5433 20.6048 64.1763 20.0566C63.8088 19.5083 63.6253 18.8849 63.6253 18.1864C63.6253 17.5405 63.7478 16.9697 63.9923 16.474C64.2373 15.9783 64.6008 15.5614 65.0828 15.2234C65.5643 14.878 66.1613 14.6188 66.8728 14.4461C67.5918 14.2659 68.4138 14.1757 69.3398 14.1757H71.3823ZM82.6158 9.41019V11.5507H75.5013V9.41019H82.6158ZM77.4063 6.41348H80.4473V18.085C80.4473 18.4455 80.4968 18.7234 80.5963 18.9187C80.6958 19.114 80.8448 19.2454 81.0438 19.313C81.2428 19.3806 81.4798 19.4144 81.7553 19.4144C81.9543 19.4144 82.1378 19.4031 82.3058 19.3806C82.4743 19.3581 82.6158 19.3355 82.7303 19.313L82.7418 21.5437C82.4893 21.6263 82.2028 21.6939 81.8813 21.7464C81.5678 21.799 81.2118 21.8253 80.8143 21.8253C80.1333 21.8253 79.5368 21.7127 79.0243 21.4873C78.5118 21.2545 78.1138 20.8827 77.8308 20.372C77.5478 19.8538 77.4063 19.1703 77.4063 18.3216V6.41348ZM90.2118 21.8253C89.2708 21.8253 88.4258 21.6751 87.6763 21.3747C86.9263 21.0742 86.2878 20.6574 85.7598 20.1242C85.2398 19.5834 84.8378 18.9563 84.5548 18.2427C84.2798 17.5217 84.1418 16.7481 84.1418 15.9219V15.4713C84.1418 14.5325 84.2798 13.68 84.5548 12.914C84.8303 12.1403 85.2203 11.4756 85.7253 10.9198C86.2303 10.3641 86.8348 9.93595 87.5383 9.63551C88.2423 9.33513 89.0188 9.18491 89.8678 9.18491C90.7473 9.18491 91.5238 9.33135 92.1973 9.62427C92.8703 9.90969 93.4323 10.3152 93.8838 10.841C94.3353 11.3668 94.6758 11.9976 94.9053 12.7337C95.1348 13.4622 95.2493 14.2696 95.2493 15.1558V16.4064H85.5188V14.356H92.2658V14.1307C92.2508 13.6575 92.1588 13.2256 91.9903 12.8351C91.8223 12.437 91.5623 12.1216 91.2103 11.8887C90.8583 11.6484 90.4033 11.5282 89.8448 11.5282C89.3933 11.5282 88.9993 11.6259 88.6628 11.8211C88.3338 12.0089 88.0588 12.2793 87.8368 12.6323C87.6223 12.9778 87.4618 13.3909 87.3548 13.8715C87.2478 14.3522 87.1943 14.8855 87.1943 15.4713V15.9219C87.1943 16.4327 87.2628 16.9058 87.4008 17.3415C87.5458 17.7771 87.7563 18.1564 88.0318 18.4793C88.3148 18.7947 88.6513 19.0426 89.0413 19.2229C89.4393 19.3956 89.8908 19.482 90.3958 19.482C91.0303 19.482 91.6043 19.3618 92.1168 19.1215C92.6368 18.8736 93.0883 18.5094 93.4708 18.0287L94.9968 19.5834C94.7368 19.9589 94.3848 20.3194 93.9413 20.6649C93.5053 21.0104 92.9773 21.2921 92.3578 21.5099C91.7383 21.7202 91.0228 21.8253 90.2118 21.8253ZM110.545 13.1167V19.5045C110.3 19.8125 109.914 20.1467 109.386 20.5072C108.866 20.8677 108.185 21.1794 107.344 21.4423C106.502 21.6976 105.469 21.8253 104.245 21.8253C103.182 21.8253 102.211 21.6526 101.331 21.3071C100.451 20.9541 99.6938 20.4396 99.0588 19.7637C98.4238 19.0877 97.9343 18.2615 97.5903 17.2851C97.2458 16.3087 97.0738 15.1934 97.0738 13.9391V12.8576C97.0738 11.6033 97.2343 10.488 97.5558 9.51161C97.8848 8.53524 98.3513 7.70904 98.9558 7.03311C99.5678 6.35712 100.298 5.84265 101.147 5.48964C102.004 5.13663 102.96 4.96014 104.016 4.96014C105.431 4.96014 106.594 5.1892 107.504 5.64737C108.422 6.10553 109.126 6.7364 109.615 7.54007C110.105 8.33617 110.411 9.25251 110.533 10.289H107.458C107.374 9.71813 107.206 9.21868 106.953 8.79056C106.701 8.35498 106.341 8.01699 105.875 7.77664C105.416 7.52878 104.819 7.40487 104.085 7.40487C103.465 7.40487 102.918 7.52505 102.444 7.7654C101.97 8.0057 101.572 8.35498 101.25 8.81309C100.929 9.27126 100.684 9.83831 100.516 10.5143C100.355 11.1902 100.275 11.9638 100.275 12.8351V13.9391C100.275 14.8179 100.367 15.599 100.551 16.2825C100.734 16.9584 100.998 17.5292 101.342 17.9949C101.694 18.453 102.126 18.8023 102.639 19.0426C103.159 19.2754 103.748 19.3919 104.406 19.3919C105.003 19.3919 105.496 19.343 105.886 19.2454C106.284 19.1403 106.601 19.0163 106.839 18.8736C107.076 18.7309 107.259 18.592 107.389 18.4568V15.3812H104.073V13.1167H110.545ZM116.328 11.9V21.6H113.299V9.41019H116.167L116.328 11.9ZM120.103 9.33135L120.057 12.1028C119.889 12.0727 119.698 12.0502 119.484 12.0352C119.277 12.0202 119.082 12.0126 118.898 12.0126C118.432 12.0126 118.023 12.0765 117.671 12.2042C117.319 12.3243 117.024 12.5009 116.787 12.7337C116.558 12.9665 116.382 13.2519 116.259 13.5899C116.137 13.9204 116.068 14.2959 116.053 14.7165L115.399 14.6376C115.399 13.864 115.479 13.1467 115.64 12.4858C115.8 11.8249 116.034 11.2466 116.34 10.7509C116.646 10.2551 117.028 9.87213 117.487 9.60174C117.954 9.32383 118.489 9.18491 119.094 9.18491C119.262 9.18491 119.442 9.19993 119.633 9.22997C119.832 9.25251 119.989 9.28628 120.103 9.33135ZM120.906 15.629V15.3925C120.906 14.4987 121.037 13.6762 121.297 12.9252C121.557 12.1666 121.935 11.5094 122.433 10.9537C122.93 10.3978 123.538 9.96599 124.257 9.65805C124.976 9.34259 125.795 9.18491 126.713 9.18491C127.646 9.18491 128.472 9.34259 129.191 9.65805C129.918 9.96599 130.53 10.3978 131.027 10.9537C131.524 11.5094 131.903 12.1666 132.163 12.9252C132.423 13.6762 132.553 14.4987 132.553 15.3925V15.629C132.553 16.5153 132.423 17.3377 132.163 18.0963C131.903 18.8473 131.524 19.5045 131.027 20.0678C130.53 20.6236 129.922 21.0555 129.203 21.3634C128.484 21.6713 127.661 21.8253 126.736 21.8253C125.818 21.8253 124.995 21.6713 124.269 21.3634C123.542 21.0555 122.93 20.6236 122.433 20.0678C121.935 19.5045 121.557 18.8473 121.297 18.0963C121.037 17.3377 120.906 16.5153 120.906 15.629ZM123.936 15.3925V15.629C123.936 16.1623 123.989 16.6617 124.096 17.1274C124.204 17.5931 124.368 18.0024 124.59 18.3554C124.812 18.7084 125.099 18.9863 125.45 19.1891C125.81 19.3844 126.238 19.482 126.736 19.482C127.225 19.482 127.646 19.3844 127.998 19.1891C128.35 18.9863 128.637 18.7084 128.858 18.3554C129.088 18.0024 129.256 17.5931 129.363 17.1274C129.47 16.6617 129.524 16.1623 129.524 15.629V15.3925C129.524 14.8667 129.47 14.3748 129.363 13.9166C129.256 13.451 129.088 13.0416 128.858 12.6886C128.637 12.3281 128.346 12.0465 127.986 11.8437C127.634 11.6334 127.21 11.5282 126.713 11.5282C126.223 11.5282 125.802 11.6334 125.45 11.8437C125.099 12.0465 124.812 12.3281 124.59 12.6886C124.368 13.0416 124.204 13.451 124.096 13.9166C123.989 14.3748 123.936 14.8667 123.936 15.3925ZM142.146 18.7047V9.41019H145.198V21.6H142.33L142.146 18.7047ZM142.536 16.181L143.477 16.1585C143.477 16.9772 143.385 17.732 143.202 18.423C143.018 19.114 142.731 19.7148 142.341 20.2256C141.959 20.7288 141.473 21.1231 140.884 21.4085C140.295 21.6863 139.599 21.8253 138.795 21.8253C138.183 21.8253 137.625 21.7427 137.12 21.5775C136.615 21.4047 136.179 21.1381 135.812 20.7776C135.452 20.4095 135.173 19.9401 134.974 19.3694C134.775 18.791 134.676 18.0963 134.676 17.2851V9.41019H137.705V17.3076C137.705 17.7132 137.751 18.0512 137.843 18.3216C137.942 18.592 138.076 18.8135 138.245 18.9863C138.421 19.1515 138.623 19.2717 138.853 19.3468C139.09 19.4144 139.342 19.4482 139.61 19.4482C140.344 19.4482 140.922 19.3055 141.343 19.0201C141.771 18.7271 142.077 18.3366 142.261 17.8484C142.444 17.3527 142.536 16.7969 142.536 16.181ZM150.913 11.7535V26.2867H147.872V9.41019H150.683L150.913 11.7535ZM158.887 15.3812V15.6178C158.887 16.504 158.78 17.3264 158.566 18.085C158.36 18.8361 158.054 19.4933 157.648 20.0566C157.243 20.6123 156.738 21.048 156.134 21.3634C155.537 21.6713 154.848 21.8253 154.068 21.8253C153.303 21.8253 152.638 21.6826 152.072 21.3972C151.505 21.1043 151.027 20.6912 150.637 20.158C150.247 19.6247 149.933 19.0051 149.696 18.2991C149.467 17.5855 149.295 16.8082 149.18 15.967V15.2122C149.295 14.3184 149.467 13.5073 149.696 12.7788C149.933 12.0427 150.247 11.408 150.637 10.8748C151.027 10.334 151.502 9.9172 152.06 9.62427C152.626 9.33135 153.288 9.18491 154.045 9.18491C154.833 9.18491 155.525 9.33135 156.122 9.62427C156.726 9.9172 157.235 10.3378 157.648 10.8861C158.061 11.4344 158.371 12.0878 158.578 12.8464C158.784 13.6049 158.887 14.4499 158.887 15.3812ZM155.847 15.6178V15.3812C155.847 14.8404 155.797 14.341 155.698 13.8828C155.598 13.4171 155.445 13.0115 155.239 12.6661C155.032 12.3131 154.764 12.039 154.435 11.8437C154.106 11.6484 153.709 11.5507 153.242 11.5507C152.775 11.5507 152.374 11.6259 152.037 11.7761C151.701 11.9263 151.425 12.1403 151.211 12.4182C150.997 12.6961 150.828 13.0266 150.706 13.4096C150.591 13.7852 150.515 14.202 150.477 14.6602V16.5303C150.545 17.0861 150.679 17.5855 150.878 18.0287C151.077 18.4718 151.368 18.8248 151.75 19.0877C152.14 19.3506 152.645 19.482 153.265 19.482C153.732 19.482 154.129 19.3806 154.458 19.1778C154.787 18.975 155.055 18.6972 155.261 18.3441C155.468 17.9836 155.617 17.5705 155.709 17.1049C155.801 16.6392 155.847 16.1435 155.847 15.6178Z" fill="#2C2C2C"/>
<mask id="mask0_26_415" style="mask-type:luminance" maskUnits="userSpaceOnUse" x="0" y="2" width="22" height="23">
<path d="M22 2.45454H0V24.0545H22V2.45454Z" fill="white"/>
</mask>
<g mask="url(#mask0_26_415)">
<path d="M0 2.45454H10.0332V12.3053H0V2.45454Z" fill="#2C2C2C"/>
<path d="M0 14.2038H10.0332V24.0545H0V14.2038Z" fill="#2C2C2C"/>
<path d="M11.9668 14.2038H22V24.0545H11.9668V14.2038Z" fill="#2C2C2C"/>
<path d="M16.9834 12.3053C19.754 12.3053 22 10.1002 22 7.37993C22 4.65972 19.754 2.45454 16.9834 2.45454C14.2128 2.45454 11.9668 4.65972 11.9668 7.37993C11.9668 10.1002 14.2128 12.3053 16.9834 12.3053Z" fill="#2C2C2C"/>
</g>
</svg>
